<svg width="100.41487mm" height="21.661091mm" viewBox="0 0 100.41487 21.661091" version="1.1" id="svg5">
    <style type="text/css">
        .main_rip_mobile{fill:url(#img3)}
      </style>
     <defs>
  <pattern id="img3" patternUnits="userSpaceOnUse" width="100" height="100">
    <image href="https://cdn.shopify.com/s/files/1/0501/1331/4984/files/big-silver_1.jpg?v=1646303598" x="0" y="0" width="100" height="100"></image>
  </pattern>
</defs>
  <g inkscape:label="Layer 1" inkscape:groupmode="layer" id="layer1" transform="translate(-49.119724,-78.150886)">
    <g style="fill:none" id="g833" transform="matrix(0.26435966,0.01087694,-0.01087693,0.26436129,50.123827,52.7284)">
      <g style="fill:none" id="g5644" transform="matrix(0.99915467,-0.04110944,0.04110941,0.99914851,444.76815,67.120169)">
        <g id="g9449">
          <path d="m -445.4279,92.605552 4.8e-4,-32.30944 c 0.0967,0.0534 0.31226,0.0465 0.3457,0.1068 1.40217,0.2309 0.8014,0.2964 2.06505,-0.9923 0.80209,-0.7907 1.46245,-0.9905 2.27477,-0.3117 0.32529,0.2842 0.70836,0.3704 1.09143,0.4565 0.79594,0.1051 1.61259,-0.1757 2.3355,0.7047 0.16356,0.174 0.41651,0.1464 0.63421,-0.005 0.56187,-0.3169 1.01364,-0.0464 1.47814,0.6702 0.69676,1.0751 1.46472,1.3111 2.26317,0.3929 0.64581,-0.7098 1.25201,-0.584 1.99571,-0.0896 0.9053,0.6048 1.891,0.6892 2.8486,0.9046 0.2232,0.0396 0.4671,-0.3067 0.6531,-0.4548 0.3733,0.8545 0.6499,1.6556 1.0159,2.2551 0.169,0.3652 0.4609,0.5892 0.7157,0.6254 0.3532,0.1533 0.7588,-0.0827 1.0841,0.2016 0.3253,0.2842 0.5667,0.9613 0.8342,1.4437 1.1426,-1.0836 1.1724,-1.1508 2.4012,-0.3256 0.4852,0.3308 0.9243,0.1551 1.432,0.1637 2.0255,-0.1567 3.9426,0.3378 5.4023,3.6955 0.3064,0.7339 0.6743,1.3972 1.0701,1.9295 0.4292,0.5927 0.9271,1.3697 1.4349,1.3783 1.272,0.1172 2.3537,1.3421 3.4299,2.3758 0.4237,0.4014 0.9108,0.7959 1.3589,0.9389 1.1808,0.255 2.1287,1.2388 2.8211,3.2734 0.5198,1.5419 1.2093,2.3619 2.1877,2.1914 0.4743,-0.0517 0.9838,0.0207 1.4338,0.2274 0.9947,0.4032 1.9633,1.001 2.9599,1.4679 1.0932,0.5203 2.1829,0.9131 3.3077,1.43 0.3911,-0.746 0.7505,-1.4885 1.1099,-2.231 0.1934,0.1068 0.3551,0.2171 0.5168,0.3274 0.7735,0.4272 1.5432,0.727 2.2748,-0.3118 0.2755,-0.3497 0.72,-0.3342 1.0678,-0.3721 0.3162,-0.0345 0.6397,0.1861 0.9595,0.2791 1.2124,0.2515 2.3689,0.765 3.4804,1.9227 0.4238,0.4014 0.853,0.9941 1.3389,0.2378 0.2737,-0.4135 0.5059,-0.0552 0.7345,0.1757 0.7898,1.001 1.6581,1.4179 2.5525,1.6401 1.5323,0.3446 2.844,-0.3737 3.783,-3.0337 0.5946,0.8304 1.2161,0.379 1.8078,-0.005 0.6865,-0.3945 1.3469,-0.5943 2.0589,-0.0964 0.6469,0.441 1.3778,0.4892 1.967,1.1284 0.4906,0.522 0.9442,0.8563 1.5134,0.7942 0.3478,-0.0378 0.7606,-0.0189 1.0859,0.2654 0.5856,0.5117 1.1583,0.5771 1.7166,0.1327 0.5898,-0.4479 1.1572,-0.5737 1.7354,-0.317 0.4816,0.2033 0.7941,0.0414 1.1572,-0.5736 0.3947,-0.6185 0.8897,-1.0561 1.3512,-1.554 1.4458,1.7607 2.015,1.6987 3.4222,-0.117 0.2438,-0.3463 0.588,-0.5117 0.869,-0.6702 1.0306,-0.5599 2.029,-0.0292 2.9733,0.827 0.684,0.6288 1.3219,0.7512 2.04,0.3532 0.4354,-0.3032 0.945,-0.2308 1.4174,-0.3462 0.3144,-0.0982 0.6342,-0.005 0.9468,-0.1671 1.3451,-0.6581 2.6512,-1.5677 4.037,-1.9105 0.1898,-0.0207 0.402,-0.3635 0.5212,-0.6322 0.5924,-1.4713 1.4461,-1.5643 2.2177,-1.2008 1.3834,0.6806 2.6094,-0.7958 3.9374,-0.9405 0.548,-0.827 1.251,-0.6478 1.851,-0.7132 0.791,-0.0861 1.591,0.1464 2.386,0.2516 0.192,0.043 0.445,0.0155 0.599,-0.1292 1.022,-0.8786 2.069,-0.8648 3.15,-0.7907 0.381,0.0224 0.768,0.236 1.11,0.007 0.966,-0.6167 1.896,-1.3575 2.825,-2.162 0.495,-0.4376 0.917,-1.187 1.48,-0.3532 0.099,0.1172 0.441,-0.112 0.56,-0.3807 0.239,-0.5375 0.49,-0.6288 0.834,-0.7942 1.094,-0.5668 2.197,-0.8148 3.335,-0.9388 0.506,-0.0551 1.083,0.1378 1.466,-0.8631 0.177,-0.4669 0.464,-0.4341 0.728,-0.0792 0.263,0.3549 0.481,0.2033 0.76,-0.019 0.279,-0.2222 0.653,-0.4548 0.912,-0.2911 0.937,0.6013 1.201,-5.6938 2.072,-6.3002 0.964,-0.6805 1.928,-1.3609 2.86,-2.038 0.342,-0.2291 0.66,-0.1998 1.078,0.0104 0.902,0.4772 1.858,0.6288 2.783,-0.3032 0.555,-0.5719 1.237,-1.0939 1.844,-0.9681 1.084,0.2016 2.098,-3.1699 3.023,-4.1019 0.4,-0.4272 0.77,-0.7873 1.224,-0.4531 1.199,0.8925 2.194,0.2085 3.064,-1.5487 0.059,-0.1344 0.188,-0.0844 0.344,-0.1654 0.455,0.398 0.914,0.9235 1.508,0.603 1.189,-0.5771 2.39,-0.708 3.599,-0.5839 1.081,0.0741 2.234,-0.627 2.937,-2.6858 0.513,0.1999 0.993,0.3394 1.474,0.5427 0.181,-0.3393 0.33,-0.6753 0.481,-0.9475 0.178,-0.4031 0.326,-0.8028 0.471,-1.2662 0.383,0.0861 0.669,0.1189 0.987,0.1482 0.318,0.0293 0.694,-0.1396 0.925,0.155 0.561,0.7701 1.091,0.4566 1.686,0.1999 1.474,-0.6081 2.777,0.5927 4.348,1.1888 0.128,0.05 0.311,-0.2256 0.435,-0.3032 0.622,-0.4513 1.18,-0.8958 1.627,-1.9036 0.238,-0.5375 0.611,-0.8338 0.918,-1.187 0.258,0.1637 0.453,0.3343 0.678,0.4376 1.255,0.6306 2.501,0.9424 3.765,-0.3462 0.679,-0.6494 1.972,4.6447 2.722,4.2433 0.469,-0.2429 0.902,-0.6099 1.23,-1.3489 0.656,-1.4782 1.534,-1.8296 2.451,-1.9295 0.883,-0.1602 1.686,0.1999 2.416,1.3352 0.333,0.5393 0.751,0.7495 1.209,1.2112 0.962,-1.8313 3.814,-8.6001 5.068,-9.1203 0.5,-0.2464 1.075,-0.1172 1.574,-0.4272 1.028,-0.6237 1.954,-0.4049 2.934,0.5754 0.556,0.5789 1.197,0.8287 1.811,1.2095 0.613,0.3807 1.218,0.4427 1.867,-0.1395 0.495,-0.4376 1.163,-0.3825 1.706,-0.2498 0.543,0.1327 1.05,0.1413 1.582,-0.1085 1.13,-0.4428 2.24,-0.4358 3.335,0.1482 0.967,0.5341 1.891,0.6892 2.866,0.3911 0.409,-0.1085 0.948,-0.1033 1.216,0.3791 1.066,1.802 2.442,2.2276 3.561,3.6403 0.559,0.7063 1.229,0.8252 1.85,0.3739 1.089,-0.758 2.214,-1.3282 3.345,-1.7072 1.1,-0.3756 0.49,4.934 1.651,4.4879 0.173,-0.5944 0.406,-1.3231 0.55,-1.8503 0.636,0.0586 1.182,0.3187 1.685,0.1361 0.502,-0.1826 0.993,-0.7476 1.52,-1.1886 0.847,1.8899 2.147,1.8761 3.163,3.0442 0.847,-0.348 1.389,0.8717 1.956,1.8331 0.234,0.422 0.498,0.7769 0.763,1.1956 1.221,-0.5806 2.406,-1.2852 3.64,-0.2687 0.097,0.0534 0.223,0.0396 0.317,-0.0344 0.649,-0.5823 1.422,-0.1551 2.046,-0.5427 1.027,-0.6873 2.02,-0.3479 3.004,-0.3272 1.335,0.1102 2.555,0.6168 3.384,3.0201 0.285,-0.031 0.475,-0.0517 0.694,-0.1396 0.249,-0.155 0.53,-0.3135 0.744,-0.5926 1.22,-1.7314 2.63,-2.3326 4.045,-2.7426 0.441,-0.1119 0.815,-0.3445 1.147,-0.9561 0.996,-1.771 2.096,-3.2336 3.482,-3.5764 0.662,-0.1361 1.306,-0.9096 1.959,-1.3644 0.342,-0.2291 0.681,-0.5857 1.057,-0.7546 1.22,-0.5805 2.261,-1.9088 3.303,-3.1733 1.318,-1.6142 2.703,-3.1078 4.372,-2.3945 0.29,0.1602 0.633,-0.0689 0.949,-0.1034 0.379,-0.0413 0.815,-0.3445 1.108,-0.0568 0.748,0.6219 1.234,-0.1344 1.6,-0.6219 0.765,0.1086 1.337,0.174 1.91,0.2395 0.255,0.0362 0.66,-0.1998 0.763,0.0448 0.308,0.7977 0.65,0.5686 0.994,0.4032 0.252,-0.0913 0.568,-0.1258 0.796,0.1051 0.617,0.5082 1.278,0.3084 1.908,0.1757 0.222,-0.0241 0.499,-0.31 0.599,-0.1292 0.634,1.082 1.181,0.255 1.81,0.0587 1.008,-0.2378 1.97,-0.982 2.95,-1.0888 1.202,-0.1309 2.17,-1.7709 3.372,-1.9019 0.221,-0.0241 0.392,-0.6822 0.605,-1.025 0.543,-0.9544 1.191,-1.6004 1.888,-1.6125 0.475,-0.0517 0.854,-0.093 1.152,-0.7649 0.715,-1.6125 2.026,-1.2438 2.669,-3.1681 0.06,-0.1344 0.186,-0.1482 0.313,-0.1619 1.04,-0.2412 2.113,-0.4221 3.153,-0.6632 0.251,-0.0913 0.565,-0.1895 0.714,-0.5255 0.629,-1.2834 1.303,-2.1241 2.261,-1.9088 0.191,0.0431 0.441,-0.1119 0.592,-0.3841 0.575,-0.9579 1.304,-0.9734 1.998,-1.1129 1.419,-0.2825 2.729,-1.0646 3.705,-3.5368 0.907,0.6685 1.895,-0.2704 2.785,0.9114 0.825,1.125 1.712,2.1794 2.634,3.3578 0.714,-2.7634 1.976,-1.8778 3.112,-2.0656 0.956,1.2387 1.955,0.6823 2.963,0.4446 0.945,-0.2309 1.895,-0.2705 2.834,0.3945 0.647,0.4411 1.298,1.0096 2.021,0.8029 0.283,-0.0948 0.612,0.317 0.874,0.6082 0.756,0.9406 1.532,1.4316 2.417,1.3352 0.634,-0.005 1.27,0.0534 1.746,1.1525 0.202,0.4256 0.457,0.4618 0.699,0.0517 0.121,-0.205 0.275,-0.3497 0.435,-0.3032 1.313,0.4325 2.678,0.4756 3.778,2.3379 0.167,0.3015 0.362,0.4721 0.557,0.6426 0.591,0.7029 1.233,0.9528 1.862,0.7564 0.945,-0.2309 1.953,-0.4686 2.82,-1.2025 0.867,-0.7338 1.624,-0.8803 2.388,0.3154 0.1,0.1809 0.29,0.1602 0.45,0.2067 0.962,-1.8313 2.003,-3.1595 3.322,-3.6229 0.439,-0.1757 0.865,-0.7977 1.297,-1.2284 0.184,-0.2118 0.328,-0.739 0.486,-0.7562 1.008,-0.2378 1.82,-1.7969 2.867,-1.7831 0.571,0.002 1.062,-0.5633 1.318,-1.6142 0.689,-2.5049 1.85,-2.9511 3.083,-3.0854 0.38,-0.0414 0.759,-0.0827 1.111,0.007 0.956,0.1516 1.839,-0.009 2.361,-1.7279 1.184,0.3825 2.269,-0.503 3.361,-0.0464 0.096,0.0534 0.219,-0.0879 0.279,-0.2223 0.486,-0.7563 1.443,0.5462 2.038,0.2895 0.407,-0.1723 0.774,-0.6598 1.107,-1.2076 0.7,-1.03543 1.408,-1.81583 2.286,-2.16726 0.909,-0.35487 1.928,-0.21014 2.749,-1.45052 0.183,-0.27564 0.503,-0.1826 0.754,-0.27391 0.941,-0.35832 1.638,0.71671 2.297,1.60396 0.159,-0.0172 0.285,-0.031 0.378,-0.10508 1.187,-0.64085 1.981,-2.83738 2.993,-0.70972 0.134,0.24119 0.39,0.34111 0.61,0.25326 0.725,-0.14298 1.223,0.63401 1.509,1.75382 0.192,0.0431 0.288,0.0965 0.415,0.0827 0.628,-0.19639 1.285,-0.5237 1.796,0.69944 0.827,0.1017 1.651,1.163 2.438,-0.1377 0.06,-0.1344 0.214,-0.27911 0.281,-0.15852 0.595,0.83042 1.105,-0.18431 1.644,-0.17913 1.33,-0.0809 2.671,0.22057 4.001,0.13963 0.095,-0.0103 0.193,0.10682 0.321,0.15682 0.29,0.1602 0.579,0.2567 0.832,0.2291 0.225,0.1034 0.45,0.2067 0.58,0.3205 l 0.002,73.768148 z" class="main_rip_mask" style="fill:rgb(var(--theme-switch-background));"></path>
          <path d="m -110.6731,20.521614 c -0.952,1.1266 -1.903,2.2533 -2.893,3.1285 -0.279,0.2222 -0.588,0.5116 -0.798,0.9182 -0.423,0.7494 -0.89,1.0561 -1.264,1.2886 -0.422,-0.3377 -0.754,-0.8769 -1.004,-0.7218 -1.309,0.7821 -2.756,0.1084 -3.973,1.9035 -0.213,0.3429 -0.7,-0.0517 -1.176,-0.0637 -0.289,0.9906 -0.771,1.8743 -1.496,2.0173 -0.231,-0.2946 -0.467,-0.7804 -0.759,-1.0044 -1.005,-0.7856 -1.923,-1.8365 -2.668,-3.4818 -0.373,-0.8545 -1.026,-1.4868 -1.589,-1.2335 -0.906,0.4823 -1.814,-0.1861 -2.69,0.229 -0.204,-0.4892 -0.349,-1.1129 -0.574,-1.2162 -0.808,-0.5514 -1.256,-1.7814 -1.768,-3.06836 -0.409,-0.97855 -0.881,-1.95021 -1.649,-1.09917 -0.216,0.21535 -0.607,-0.12578 -0.898,-0.34974 -0.908,-0.66846 -1.811,-1.20944 -2.771,-1.48855 -1.022,-0.27222 -1.954,-0.68226 -2.949,0.0017 -0.186,0.14816 -0.415,-0.0827 -0.607,-0.12577 -1.883,-0.43418 -3.585,-0.05693 -4.921,3.15775 -0.415,1.00438 -1.093,1.71758 -1.714,2.16898 -0.901,0.6736 -1.842,1.0319 -2.783,1.3902 -0.534,0.186 -0.903,0.6098 -1.097,1.5901 -0.084,0.3928 -0.235,0.665 -0.35,1.0612 -1.037,-0.7821 -2.033,-0.0982 -2.763,1.0043 -0.973,1.4489 -1.994,1.2404 -3.041,1.2266 -0.729,0.0155 -1.494,-0.0931 -2.251,0.0534 -0.946,0.167 -1.884,0.6529 -2.776,-0.5927 -0.331,-0.4755 -0.837,-0.4204 -1.253,-0.5669 -0.385,-0.1499 -0.699,-0.0517 -1.07,0.3084 -0.865,0.7976 -1.764,1.535 -2.635,2.1414 -0.342,0.2291 -0.725,0.1429 -1.166,0.2549 -0.246,1.3696 -0.838,1.7538 -1.556,2.1517 -0.873,0.5427 -1.779,1.025 -2.644,1.8227 -0.743,0.6563 -1.771,1.28 -2.486,-0.4325 -0.409,-0.9785 -0.974,-0.7891 -1.46,-1.1198 -0.895,0.8648 -1.776,0.0016 -2.665,-0.0294 -0.318,-0.0293 -0.701,-0.1154 -0.947,0.1671 -0.954,0.9992 -1.858,0.4582 -2.817,0.1791 -0.64,-0.1861 -1.272,-0.1172 -1.908,-0.1758 -0.255,-0.0361 -0.573,-0.0654 -0.739,-0.3032 -0.563,-0.8338 -1.113,-1.2215 -1.788,-0.4445 -0.153,0.2085 -0.415,-0.0827 -0.637,-0.0586 -1.264,0.1378 -2.535,0.0844 -3.808,-0.0965 -0.478,-0.0759 -0.947,0.1671 -1.307,0.9096 -0.54,1.0819 -1.167,1.342 -1.907,0.975 -0.321,-0.1568 -0.764,-0.1085 -1.073,0.1809 -1.356,1.3627 -2.874,1.528 -4.273,2.5117 -0.436,0.3032 -0.912,0.2911 -1.268,1.1611 -0.147,0.3997 -0.458,0.6254 -0.711,0.653 -0.79,0.0861 -1.599,-0.4652 -2.376,0.0671 -0.062,0.0706 -0.194,-0.1068 -0.292,-0.224 -1.154,-1.5367 -2.349,-1.1508 -3.53,-0.3188 -0.249,0.1551 -0.497,0.3739 -0.746,0.5289 -0.782,0.4049 -1.535,0.6788 -2.211,-0.7822 -0.303,-0.6064 -0.751,-0.7494 -1.214,-0.3153 -0.339,0.3566 -0.713,0.5892 -1.075,0.1172 -0.495,-0.6495 -0.897,-0.286 -1.36,0.1481 -0.586,0.5754 -1.174,1.087 -1.776,0.0017 -0.134,-0.2412 -0.42,-0.274 -0.608,-0.1895 -0.69,0.267 -1.418,0.3462 -2.035,0.925 -0.775,0.6599 -1.411,0.6013 -2.128,-0.0879 -0.881,-0.8631 -1.811,-1.2094 -2.771,-0.4014 -0.186,0.1481 -0.407,0.1722 -0.597,0.1929 -0.201,-0.3618 -0.37,-0.727 -0.533,-0.901 -0.229,-0.2309 -0.515,-0.2636 -0.744,-0.4945 -0.294,-0.2877 -0.617,-0.5082 -0.79,-1.0009 -0.586,-1.6625 -1.488,-2.1397 -2.351,-2.3655 -0.703,-0.1791 -1.483,-0.8614 -2.226,-0.205 -0.835,0.7304 -1.543,-0.7271 -2.36,-0.4463 -0.156,0.081 -0.316,0.0345 -0.474,0.0517 -1.423,0.155 -2.856,1.0784 -4.3,0.4685 -0.129,-0.0499 -0.315,0.0982 -0.438,0.2395 -0.457,0.6253 -0.907,0.4186 -1.391,0.1515 -0.29,-0.1602 -0.643,-0.3135 -0.959,-0.2791 -1.644,0.1792 -3.292,0.2308 -4.916,0.0241 -0.16,-0.0466 -0.283,0.0947 -0.439,0.1757 -0.376,0.1688 -0.744,0.5926 -1.096,0.503 -0.801,-0.2963 -1.478,0.4169 -2.197,0.8148 -0.656,0.3273 -1.265,1.2249 -1.986,0.4083 -0.065,-0.0569 -0.223,-0.0397 -0.285,0.031 -1.109,1.1439 -2.385,0.8992 -3.815,1.8863 -0.028,0.131 -0.17,0.7219 -0.379,1.1922 -0.119,0.2688 -0.363,0.615 -0.523,0.5685 -0.636,-0.0586 -1.094,0.5668 -1.583,1.1956 -0.613,0.7701 -1.288,1.547 -2.081,1.5694 -0.665,0.0086 -1.255,0.4565 -1.7,1.5281 -0.239,0.5375 -0.576,0.9578 -0.818,1.3678 -0.16,-0.0465 -0.255,-0.0361 -0.381,-0.0224 -1.023,-0.2722 -2.008,-0.3566 -2.926,0.8304 -0.398,0.4909 -0.901,0.6735 -1.369,0.9164 -0.782,0.4049 -1.553,-1.0457 -2.357,-0.3187 -0.093,0.0741 -0.253,0.0275 -0.319,-0.0931 -0.476,-1.0991 -1.034,-0.6546 -1.631,-0.4617 -0.69,0.267 -1.395,0.0241 -2.018,-0.6754 -0.392,-0.4048 -0.812,-0.6788 -1.219,-0.5065 -0.627,0.2601 -1.176,-0.0638 -1.728,-0.5151 -0.617,-0.5083 -1.22,-0.5066 -1.876,-0.1793 -0.594,0.3205 -1.224,0.4531 -1.847,-0.2463 -0.491,-0.5221 -1.056,-0.3326 -1.555,-0.0225 -0.311,0.2257 -0.679,0.6495 -0.906,0.4824 -1.173,-1.0871 -2.446,-0.1172 -3.639,-0.8184 -0.355,-0.2171 -0.82,0.1533 -1.224,0.453 -0.341,0.2929 -0.642,0.8373 -0.979,1.2577 -0.885,-0.9907 -1.795,-0.6358 -2.595,0.2187 -0.616,0.6426 -1.213,0.8355 -1.858,0.4582 -0.774,-0.4273 -1.466,-0.224 -2.139,0.6167 -0.246,0.2826 -0.622,0.4514 -0.912,0.2912 -0.773,-0.4273 -1.463,-0.1603 -2.176,0.4289 -0.341,0.2928 -0.718,0.3979 -1.094,0.5668 -0.753,0.2739 -1.624,-0.2068 -2.145,1.5125 -0.058,0.1981 -0.279,0.2222 -0.438,0.2395 -0.946,0.1671 -1.713,1.0818 -2.476,2.1241 -0.214,0.2791 -0.421,0.8131 -0.641,0.901 -1.069,0.3084 -1.699,1.5918 -2.087,3.5523 -0.196,0.9166 -0.6,1.2163 -1.046,1.137 -0.351,-0.0895 -0.84,-0.5478 -1.086,-0.2653 -0.917,1.187 -2.067,0.9286 -2.982,2.1793 -1.009,1.3248 -2.367,1.5366 -3.129,3.7297 -1.284,0.5875 -2.408,2.3085 -3.801,2.3963 -0.696,0.0758 -1.487,0.1619 -2.051,1.5023 -0.357,0.8062 -0.897,0.801 -1.356,0.2756 -1.147,-1.2818 -2.454,-1.523 -3.677,-2.157 -0.484,-0.2671 -0.93,-0.3463 -1.356,0.2756 -0.395,0.6185 -0.815,0.3445 -1.209,-0.1241 -0.264,-0.3549 -0.498,-0.777 -0.797,-1.2559 -1.067,1.5229 -2.328,1.7882 -3.522,2.1741 -0.785,0.2773 -1.576,0.3634 -2.207,1.5832 -0.119,0.2687 -0.404,0.2997 -0.595,0.2566 -1.142,-0.0034 -2.283,-1.094 -3.467,-0.3256 -0.557,-0.6426 -1.0985,-0.7116 -1.6865,-0.1999 -0.5881,0.5116 -1.2405,-0.1206 -1.8954,0.2704 -1.2466,0.7752 -2.515,0.7856 -3.7286,-0.6168 -0.8196,-0.9338 -1.6824,-1.1595 -2.6237,-0.8012 -0.8148,0.3446 -1.7263,0.6357 -2.3111,-0.963 -1.3397,0.8493 -1.3397,0.8493 -2.881,0.186 -0.2566,-0.1 -0.543,-0.1327 -0.7942,-0.0414 -1.2556,0.4565 -2.4797,0.9096 -3.615,2.2481 -0.8915,0.9923 -1.8408,2.1828 -2.9857,0.9647 -0.1319,-0.1774 -0.4111,0.0448 -0.5971,0.193 -0.5285,0.3773 -1.0587,0.6908 -1.5792,0.236 -0.6171,-0.5083 -1.2495,-0.4394 -1.8594,-0.6926 -0.74,-0.367 -1.441,-0.4824 -2.1926,-0.1448 -0.7814,0.4048 -1.5701,0.5547 -2.3533,0.8958 -0.3144,0.0982 -0.6938,0.1395 -0.8726,0.5427 -0.8417,1.6262 -1.9872,1.4953 -2.942,2.4945 -0.8068,-0.4876 -1.083,0.9492 -1.4108,1.6883 -0.1897,0.0206 -0.2511,0.0913 -0.2846,0.031 -0.9758,-0.8528 -2.1032,-0.3463 -3.0791,-1.1991 -0.2602,-0.2275 -0.7047,-0.243 -0.9486,0.1033 -0.9176,1.187 -1.888,0.5254 -2.8105,0.4341 -0.7309,-0.0483 -1.4545,0.1585 -2.1872,0.0465 -0.6963,1.1628 -1.4381,0.7321 -2.1203,0.167 -0.6822,-0.5651 -1.1121,-0.0706 -1.3883,1.3662 -1.424,-0.9958 -2.7811,-1.871 -4.075,-2.7531 -0.5175,0.7597 -0.9438,1.3816 -1.3403,1.9363 -0.7272,0.0793 -1.3949,0.0241 -2.0211,-0.8028 -0.3624,-0.4721 -0.8087,-0.5513 -1.2423,-0.1844 -0.588,0.5117 -1.1663,0.255 -1.7183,-0.1964 -1.0057,-0.7856 -2.0303,-1.1216 -3.0908,-0.4945 -0.3423,0.2291 -0.8166,0.2808 -1.1121,-0.0707 -0.4925,-0.5857 -0.9243,-0.155 -1.3985,-0.1034 -1.2946,0.205 -2.5721,-0.1034 -3.5509,-2.1708 -0.4718,-0.9716 -0.9534,-1.1749 -1.6138,-0.9751 -0.785,0.2774 -1.6776,0.1189 -2.3093,-0.8993 -0.667,-1.1422 -1.2987,-2.1604 -2.1651,-2.5136 -0.225,-0.1034 -0.4293,-0.5927 -0.6597,-0.8873 -0.9886,-1.299 -2.0034,-2.4033 -3.2925,-2.0071 -0.4706,0.1792 -0.9169,0.0999 -1.3432,0.7219 -0.2439,0.3462 -0.6477,0.646 -0.9061,0.4823 -0.6487,-0.5048 -1.0605,0.6271 -1.7172,0.9544 -0.104,-0.3084 -0.2395,-0.6133 -0.3769,-0.982 -0.6779,-1.5247 -1.5237,-2.2638 -2.5391,-2.281 -0.4761,-0.0121 -0.9559,-0.1516 -1.4375,-0.3549 -0.3532,-0.1534 -0.7381,-0.3033 -1.0634,-0.5875 -0.9741,-0.7891 -1.9517,-1.7056 -2.9258,-2.4947 -0.32347,-0.2205 -0.73634,-0.2395 -1.08233,-0.1378 -1.35054,0.4668 -2.6938,1.1886 -4.08141,1.4677 -1.29276,0.2687 -2.54229,-0.1706 -3.57889,-2.0399 -0.67059,-1.2697 -0.13306,-1.3282 -1.06275,-1.6745 -0.73817,-0.3032 -1.36899,3.1544 -1.40902,1.752 -0.0127,-0.4462 -1.18698,0.6409 -1.1797,0.8958 0,0 -0.028,0.131 -0.056,0.2619 l 4.8e-4,5.3544 c 0.0967,0.0534 0.31226,0.0465 0.3457,0.1068 1.40217,0.2309 0.8014,0.2964 2.06505,-0.9923 0.80209,-0.7907 1.46245,-0.9905 2.27477,-0.3117 0.32529,0.2842 0.70836,0.3704 1.09143,0.4565 0.79594,0.1051 1.61259,-0.1757 2.3355,0.7047 0.16356,0.174 0.41651,0.1464 0.63421,-0.0052 0.56187,-0.3169 1.01364,-0.0464 1.47814,0.6702 0.69676,1.0751 1.46472,1.3111 2.26317,0.3929 0.64581,-0.7098 1.25201,-0.584 1.99571,-0.0896 0.9053,0.6048 1.891,0.6892 2.8486,0.9046 0.2232,0.0396 0.4671,-0.3067 0.6531,-0.4548 0.3733,0.8545 0.6499,1.6556 1.0159,2.2551 0.169,0.3652 0.4609,0.5892 0.7157,0.6254 0.3532,0.1533 0.7588,-0.0827 1.0841,0.2016 0.3253,0.2842 0.5667,0.9613 0.8342,1.4437 1.1426,-1.0836 1.1724,-1.1508 2.4012,-0.3256 0.4852,0.3308 0.9243,0.1551 1.432,0.1637 2.0255,-0.1567 3.9426,0.3378 5.4023,3.6955 0.3064,0.7339 0.6743,1.3972 1.0701,1.9295 0.4292,0.5927 0.9271,1.3697 1.4349,1.3783 1.272,0.1172 2.3537,1.3421 3.4299,2.3758 0.4237,0.4014 0.9108,0.7959 1.3589,0.9389 1.1808,0.255 2.1287,1.2388 2.8211,3.2734 0.5198,1.5419 1.2093,2.3619 2.1877,2.1914 0.4743,-0.0517 0.9838,0.0207 1.4338,0.2274 0.9947,0.4032 1.9633,1.001 2.9599,1.4679 1.0932,0.5203 2.1829,0.9131 3.3077,1.43 0.3911,-0.746 0.7505,-1.4885 1.1099,-2.231 0.1934,0.1068 0.3551,0.2171 0.5168,0.3274 0.7735,0.4272 1.5432,0.727 2.2748,-0.3118 0.2755,-0.3497 0.72,-0.3342 1.0678,-0.3721 0.3162,-0.0345 0.6397,0.1861 0.9595,0.2791 1.2124,0.2515 2.3689,0.765 3.4804,1.9227 0.4238,0.4014 0.853,0.9941 1.3389,0.2378 0.2737,-0.4135 0.5059,-0.0552 0.7345,0.1757 0.7898,1.001 1.6581,1.4179 2.5525,1.6401 1.5323,0.3446 2.844,-0.3737 3.783,-3.0337 0.5946,0.8304 1.2161,0.379 1.8078,-0.0051 0.6865,-0.3945 1.3469,-0.5943 2.0589,-0.0964 0.6469,0.441 1.3778,0.4892 1.967,1.1284 0.4906,0.522 0.9442,0.8563 1.5134,0.7942 0.3478,-0.0378 0.7606,-0.0189 1.0859,0.2654 0.5856,0.5117 1.1583,0.5771 1.7166,0.1327 0.5898,-0.4479 1.1572,-0.5737 1.7354,-0.317 0.4816,0.2033 0.7941,0.0414 1.1572,-0.5736 0.3947,-0.6185 0.8897,-1.0561 1.3512,-1.554 1.4458,1.7607 2.015,1.6987 3.4222,-0.117 0.2438,-0.3463 0.588,-0.5117 0.869,-0.6702 1.0306,-0.5599 2.029,-0.0292 2.9733,0.827 0.684,0.6288 1.3219,0.7512 2.04,0.3532 0.4354,-0.3032 0.945,-0.2308 1.4174,-0.3462 0.3144,-0.0982 0.6342,-0.0052 0.9468,-0.1671 1.3451,-0.6581 2.6512,-1.5677 4.037,-1.9105 0.1898,-0.0207 0.402,-0.3635 0.5212,-0.6322 0.5924,-1.4713 1.4461,-1.5643 2.2177,-1.2008 1.3834,0.6806 2.6094,-0.7958 3.9374,-0.9405 0.548,-0.827 1.251,-0.6478 1.851,-0.7132 0.791,-0.0861 1.591,0.1464 2.386,0.2516 0.192,0.043 0.445,0.0155 0.599,-0.1292 1.022,-0.8786 2.069,-0.8648 3.15,-0.7907 0.381,0.0224 0.768,0.236 1.11,0.0069 0.966,-0.6167 1.896,-1.3575 2.825,-2.162 0.495,-0.4376 0.917,-1.187 1.48,-0.3532 0.099,0.1172 0.441,-0.112 0.56,-0.3807 0.239,-0.5375 0.49,-0.6288 0.834,-0.7942 1.094,-0.5668 2.197,-0.8148 3.335,-0.9388 0.506,-0.0551 1.083,0.1378 1.466,-0.8631 0.177,-0.4669 0.464,-0.4341 0.728,-0.0792 0.263,0.3549 0.481,0.2033 0.76,-0.019 0.279,-0.2222 0.653,-0.4548 0.912,-0.2911 0.937,0.6013 1.201,-5.6938 2.072,-6.3002 0.964,-0.6805 1.928,-1.3609 2.86,-2.038 0.342,-0.2291 0.66,-0.1998 1.078,0.0104 0.902,0.4772 1.858,0.6288 2.783,-0.3032 0.555,-0.5719 1.237,-1.0939 1.844,-0.9681 1.084,0.2016 2.098,-3.1699 3.023,-4.1019 0.4,-0.4272 0.77,-0.7873 1.224,-0.4531 1.199,0.8925 2.194,0.2085 3.064,-1.5487 0.059,-0.1344 0.188,-0.0844 0.344,-0.1654 0.455,0.398 0.914,0.9235 1.508,0.603 1.189,-0.5771 2.39,-0.708 3.599,-0.5839 1.081,0.0741 2.234,-0.627 2.937,-2.6858 0.513,0.1999 0.993,0.3394 1.474,0.5427 0.181,-0.3393 0.33,-0.6753 0.481,-0.9475 0.178,-0.4031 0.326,-0.8028 0.471,-1.2662 0.383,0.0861 0.669,0.1189 0.987,0.1482 0.318,0.0293 0.694,-0.1396 0.925,0.155 0.561,0.7701 1.091,0.4566 1.686,0.1999 1.474,-0.6081 2.777,0.5927 4.348,1.1888 0.128,0.05 0.311,-0.2256 0.435,-0.3032 0.622,-0.4513 1.18,-0.8958 1.627,-1.9036 0.238,-0.5375 0.611,-0.8338 0.918,-1.187 0.258,0.1637 0.453,0.3343 0.678,0.4376 1.255,0.6306 2.501,0.9424 3.765,-0.3462 0.679,-0.6494 1.972,4.6447 2.722,4.2433 0.469,-0.2429 0.902,-0.6099 1.23,-1.3489 0.656,-1.4782 1.534,-1.8296 2.451,-1.9295 0.883,-0.1602 1.686,0.1999 2.416,1.3352 0.333,0.5393 0.751,0.7495 1.209,1.2112 0.962,-1.8313 3.814,-8.6001 5.068,-9.1203 0.5,-0.2464 1.075,-0.1172 1.574,-0.4272 1.028,-0.6237 1.954,-0.4049 2.934,0.5754 0.556,0.5789 1.197,0.8287 1.811,1.2095 0.613,0.3807 1.218,0.4427 1.867,-0.1395 0.495,-0.4376 1.163,-0.3825 1.706,-0.2498 0.543,0.1327 1.05,0.1413 1.582,-0.1085 1.13,-0.4428 2.24,-0.4358 3.335,0.1482 0.967,0.5341 1.891,0.6892 2.866,0.3911 0.409,-0.1085 0.948,-0.1033 1.216,0.3791 1.066,1.802 2.442,2.2276 3.561,3.6403 0.559,0.7063 1.229,0.8252 1.85,0.3739 1.089,-0.758 2.214,-1.3282 3.345,-1.7072 1.1,-0.3756 0.49,4.934 1.651,4.4879 0.173,-0.5944 0.406,-1.3231 0.55,-1.8503 0.636,0.0586 1.182,0.3187 1.685,0.1361 0.502,-0.1826 0.993,-0.7476 1.52,-1.1886 0.847,1.8899 2.147,1.8761 3.163,3.0442 0.847,-0.348 1.389,0.8717 1.956,1.8331 0.234,0.422 0.498,0.7769 0.763,1.1956 1.221,-0.5806 2.406,-1.2852 3.64,-0.2687 0.097,0.0534 0.223,0.0396 0.317,-0.0344 0.649,-0.5823 1.422,-0.1551 2.046,-0.5427 1.027,-0.6873 2.02,-0.3479 3.004,-0.3272 1.335,0.1102 2.555,0.6168 3.384,3.0201 0.285,-0.031 0.475,-0.0517 0.694,-0.1396 0.249,-0.155 0.53,-0.3135 0.744,-0.5926 1.22,-1.7314 2.63,-2.3326 4.045,-2.7426 0.441,-0.1119 0.815,-0.3445 1.147,-0.9561 0.996,-1.771 2.096,-3.2336 3.482,-3.5764 0.662,-0.1361 1.306,-0.9096 1.959,-1.3644 0.342,-0.2291 0.681,-0.5857 1.057,-0.7546 1.22,-0.5805 2.261,-1.9088 3.303,-3.1733 1.318,-1.6142 2.703,-3.1078 4.372,-2.3945 0.29,0.1602 0.633,-0.0689 0.949,-0.1034 0.379,-0.0413 0.815,-0.3445 1.108,-0.0568 0.748,0.6219 1.234,-0.1344 1.6,-0.6219 0.765,0.1086 1.337,0.174 1.91,0.2395 0.255,0.0362 0.66,-0.1998 0.763,0.0448 0.308,0.7977 0.65,0.5686 0.994,0.4032 0.252,-0.0913 0.568,-0.1258 0.796,0.1051 0.617,0.5082 1.278,0.3084 1.908,0.1757 0.222,-0.0241 0.499,-0.31 0.599,-0.1292 0.634,1.082 1.181,0.255 1.81,0.0587 1.008,-0.2378 1.97,-0.982 2.95,-1.0888 1.202,-0.1309 2.17,-1.7709 3.372,-1.9019 0.221,-0.0241 0.392,-0.6822 0.605,-1.025 0.543,-0.9544 1.191,-1.6004 1.888,-1.6125 0.475,-0.0517 0.854,-0.093 1.152,-0.7649 0.715,-1.6125 2.026,-1.2438 2.669,-3.1681 0.06,-0.1344 0.186,-0.1482 0.313,-0.1619 1.04,-0.2412 2.113,-0.4221 3.153,-0.6632 0.251,-0.0913 0.565,-0.1895 0.714,-0.5255 0.629,-1.2834 1.303,-2.1241 2.261,-1.9088 0.191,0.0431 0.441,-0.1119 0.592,-0.3841 0.575,-0.9579 1.304,-0.9734 1.998,-1.1129 1.419,-0.2825 2.729,-1.0646 3.705,-3.5368 0.907,0.6685 1.895,-0.2704 2.785,0.9114 0.825,1.125 1.712,2.1794 2.634,3.3578 0.714,-2.7634 1.976,-1.8778 3.112,-2.0656 0.956,1.2387 1.955,0.6823 2.963,0.4446 0.945,-0.2309 1.895,-0.2705 2.834,0.3945 0.647,0.4411 1.298,1.0096 2.021,0.8029 0.283,-0.0948 0.612,0.317 0.874,0.6082 0.756,0.9406 1.532,1.4316 2.417,1.3352 0.634,-0.0052 1.27,0.0534 1.746,1.1525 0.202,0.4256 0.457,0.4618 0.699,0.0517 0.121,-0.205 0.275,-0.3497 0.435,-0.3032 1.313,0.4325 2.678,0.4756 3.778,2.3379 0.167,0.3015 0.362,0.4721 0.557,0.6426 0.591,0.7029 1.233,0.9528 1.862,0.7564 0.945,-0.2309 1.953,-0.4686 2.82,-1.2025 0.867,-0.7338 1.624,-0.8803 2.388,0.3154 0.1,0.1809 0.29,0.1602 0.45,0.2067 0.962,-1.8313 2.003,-3.1595 3.322,-3.6229 0.439,-0.1757 0.865,-0.7977 1.297,-1.2284 0.184,-0.2118 0.328,-0.739 0.486,-0.7562 1.008,-0.2378 1.82,-1.7969 2.867,-1.7831 0.571,0.0018 1.062,-0.5633 1.318,-1.6142 0.689,-2.5049 1.85,-2.9511 3.083,-3.0854 0.38,-0.0414 0.759,-0.0827 1.111,0.0069 0.956004,0.1516 1.839006,-0.0086 2.361006,-1.7279 1.184,0.3825 2.269,-0.503 3.361,-0.0464 0.096,0.0534 0.219,-0.0879 0.279,-0.2223 0.486,-0.7563 1.443,0.5462 2.038,0.2895 0.407,-0.1723 0.774,-0.6598 1.107,-1.2076 0.7,-1.03543 1.408,-1.81583 2.286,-2.16726 0.909,-0.35487 1.928,-0.21014 2.749,-1.45052 0.183,-0.27564 0.503,-0.1826 0.754,-0.27391 0.941,-0.35832 1.638,0.71671 2.297,1.60396 0.159,-0.01722 0.285,-0.031 0.378,-0.10508 1.187,-0.64085 1.981,-2.83738 2.993,-0.70972 0.134,0.24119 0.39,0.34111 0.61,0.25326 0.725,-0.14298 1.223,0.63401 1.509,1.75382 0.192,0.04307 0.288,0.09649 0.415,0.08271 0.628,-0.19639 1.285,-0.5237 1.796,0.69944 0.827,0.1017 1.651,1.163 2.438,-0.1377 0.06,-0.1344 0.214,-0.27911 0.281,-0.15852 0.595,0.83042 1.105,-0.18431 1.644,-0.17913 1.33,-0.08094 2.671,0.22057 4.001,0.13963 0.095,-0.01033 0.193,0.10682 0.321,0.15682 0.29,0.1602 0.579,0.2567 0.832,0.2291 0.225,0.1034 0.45,0.2067 0.58,0.3205 l -6.6e-4,-5.362263 c -0.112,0.52372 -0.52034,1.582423 -0.51834,1.646163 -0.035,-0.12404 -0.498,0.31009 -1.101,0.3118 -0.063,0.0069 -0.126,0.01379 -0.19,0.02068 -0.225,-0.10337 -0.479,-0.13956 -0.76,0.01893 -0.376,0.16882 -0.733,-0.112 -1.006,-0.78561 -0.136,-0.30493 -0.4,-0.65983 -0.524,-0.58231 -0.685,0.45825 -1.242,-0.18437 -1.856,-0.56511 -0.677,-0.37386 -1.381,-0.61679 -2.064,-0.0948 -0.745,0.59262 -1.328,0.14469 -1.956,-0.74601 -0.43,-0.59264 -0.773,-1.51434 -1.404,-1.3817 -0.662,0.13609 -0.869,-1.56775 -1.419,-1.95538 -0.259,-0.163674 -0.517,-0.327343 -0.774,-0.427269 -0.383,-0.08615 -0.734,-0.175746 -1.244,-0.248113 -0.449,0.944072 -0.957,2.022522 -1.467,3.037232 -0.599,0.1292 -1.204,0.06717 -1.734,0.3807 -0.56,0.38072 -1.038,0.30491 -1.583,0.1085 -0.576,-0.19296 -1.851,-1.52469 -2.478,-1.26457 -1.725,0.69941 -2.726,2.27918 -4.488,2.79081 -0.565,0.18949 -1.136,0.18775 -1.742,0.06198 -1.021,-0.20848 -2.133,-0.27914 -3.044,1.16281 -0.426,0.62192 -0.807,0.59951 -1.145,-0.13095 -0.506,-1.03196 -1.116,-1.28522 -1.772006,-0.9579 -0.908,0.41861 -1.685,-0.13614 -2.213,-0.84594 -0.629,0.19639 -1.031,0.55988 -1.416,0.40999 -0.448,-0.143 -0.859,-0.09821 -1.225,0.38933 -0.492,0.56506 -0.957,0.93544 -1.535,0.67873 -0.16,-0.04651 -0.353,-0.15333 -0.478,-0.07581 -1.053,0.88205 -2.796,0.94403 -2.441,1.16111 -0.197,2.00359 -0.757,2.38431 -1.186,2.87877 z" class="main_rip main_rip_mobile"></path>
        </g>
      </g>
    </g>
  </g>
</svg>