<svg width="18" height="19" viewBox="0 0 18 19" fill="none" xmlns="http://www.w3.org/2000/svg">
<path d="M9 8.70833C9.59334 8.70833 10.1734 8.52261 10.6667 8.17465C11.1601 7.8267 11.5446 7.33213 11.7716 6.7535C11.9987 6.17487 12.0581 5.53816 11.9424 4.92388C11.8266 4.30961 11.5409 3.74536 11.1213 3.3025C10.7018 2.85963 10.1672 2.55803 9.58527 2.43585C9.00333 2.31366 8.40013 2.37637 7.85195 2.61605C7.30377 2.85573 6.83524 3.26161 6.50559 3.78236C6.17595 4.30312 6 4.91536 6 5.54167C6 6.38152 6.31607 7.18697 6.87868 7.78084C7.44129 8.37471 8.20435 8.70833 9 8.70833ZM9 3.95833C9.29667 3.95833 9.58668 4.0512 9.83336 4.22517C10.08 4.39915 10.2723 4.64644 10.3858 4.93575C10.4994 5.22507 10.5291 5.54342 10.4712 5.85056C10.4133 6.1577 10.2704 6.43982 10.0607 6.66125C9.85088 6.88269 9.58361 7.03349 9.29264 7.09458C9.00166 7.15567 8.70006 7.12432 8.42598 7.00448C8.15189 6.88464 7.91762 6.6817 7.7528 6.42132C7.58797 6.16094 7.5 5.85482 7.5 5.54167C7.5 5.12174 7.65804 4.71901 7.93934 4.42208C8.22064 4.12515 8.60218 3.95833 9 3.95833Z" fill="#031A36"></path>
<path d="M9 10.2917C7.60761 10.2917 6.27226 10.8756 5.28769 11.9149C4.30312 12.9541 3.75 14.3637 3.75 15.8334C3.75 16.0434 3.82902 16.2447 3.96967 16.3932C4.11032 16.5417 4.30109 16.6251 4.5 16.6251C4.69891 16.6251 4.88968 16.5417 5.03033 16.3932C5.17098 16.2447 5.25 16.0434 5.25 15.8334C5.25 14.7836 5.64509 13.7768 6.34835 13.0345C7.05161 12.2921 8.00544 11.8751 9 11.8751C9.99456 11.8751 10.9484 12.2921 11.6517 13.0345C12.3549 13.7768 12.75 14.7836 12.75 15.8334C12.75 16.0434 12.829 16.2447 12.9697 16.3932C13.1103 16.5417 13.3011 16.6251 13.5 16.6251C13.6989 16.6251 13.8897 16.5417 14.0303 16.3932C14.171 16.2447 14.25 16.0434 14.25 15.8334C14.25 14.3637 13.6969 12.9541 12.7123 11.9149C11.7277 10.8756 10.3924 10.2917 9 10.2917Z" fill="#031A36"></path>
</svg>