<svg width="19" height="19" viewBox="0 0 19 19" fill="none" xmlns="http://www.w3.org/2000/svg">
<path d="M16.6883 5.54164C16.5515 5.30463 16.3556 5.10712 16.1197 4.96837C15.8838 4.82963 15.616 4.75438 15.3424 4.74998H5.20908L4.74992 2.96081C4.70353 2.7881 4.60002 2.63618 4.45627 2.5298C4.31252 2.42343 4.13698 2.36885 3.95825 2.37498H2.37492C2.16496 2.37498 1.96359 2.45838 1.81513 2.60685C1.66666 2.75532 1.58325 2.95668 1.58325 3.16664C1.58325 3.37661 1.66666 3.57797 1.81513 3.72644C1.96359 3.8749 2.16496 3.95831 2.37492 3.95831H3.35659L5.54158 12.0808C5.58798 12.2535 5.69148 12.4054 5.83523 12.5118C5.97899 12.6182 6.15452 12.6728 6.33325 12.6666H13.4583C13.6044 12.6662 13.7477 12.6253 13.872 12.5484C13.9964 12.4716 14.097 12.3618 14.1628 12.2312L16.7595 7.03789C16.872 6.80199 16.9244 6.54189 16.912 6.28081C16.8996 6.01973 16.8227 5.76579 16.6883 5.54164ZM12.9674 11.0833H6.93492L5.6445 6.33331H15.3424L12.9674 11.0833Z" fill="#031A36"></path>
<path d="M5.9375 16.625C6.59334 16.625 7.125 16.0933 7.125 15.4375C7.125 14.7817 6.59334 14.25 5.9375 14.25C5.28166 14.25 4.75 14.7817 4.75 15.4375C4.75 16.0933 5.28166 16.625 5.9375 16.625Z" fill="#031A36"></path>
<path d="M13.8542 16.625C14.5101 16.625 15.0417 16.0933 15.0417 15.4375C15.0417 14.7817 14.5101 14.25 13.8542 14.25C13.1984 14.25 12.6667 14.7817 12.6667 15.4375C12.6667 16.0933 13.1984 16.625 13.8542 16.625Z" fill="#031A36"></path>
</svg>