<svg width="44" height="44" viewBox="0 0 44 44" fill="none" xmlns="http://www.w3.org/2000/svg">
<rect width="44" height="44" rx="22" fill="#5DBA47"/>
<path d="M28.6885 18.5416C28.5517 18.3046 28.3558 18.1071 28.12 17.9684C27.8841 17.8296 27.6163 17.7544 27.3427 17.75H17.2093L16.7502 15.9608C16.7038 15.7881 16.6003 15.6362 16.4565 15.5298C16.3128 15.4234 16.1372 15.3689 15.9585 15.375H14.3752C14.1652 15.375 13.9638 15.4584 13.8154 15.6068C13.6669 15.7553 13.5835 15.9567 13.5835 16.1666C13.5835 16.3766 13.6669 16.578 13.8154 16.7264C13.9638 16.8749 14.1652 16.9583 14.3752 16.9583H15.3568L17.5418 25.0808C17.5882 25.2535 17.6917 25.4054 17.8355 25.5118C17.9792 25.6182 18.1548 25.6728 18.3335 25.6666H25.4585C25.6047 25.6662 25.7479 25.6253 25.8723 25.5484C25.9966 25.4716 26.0973 25.3618 26.1631 25.2312L28.7597 20.0379C28.8723 19.802 28.9247 19.5419 28.9123 19.2808C28.8998 19.0197 28.8229 18.7658 28.6885 18.5416ZM24.9677 24.0833H18.9352L17.6447 19.3333H27.3427L24.9677 24.0833Z" fill="white"/>
<path d="M17.9375 29.625C18.5933 29.625 19.125 29.0933 19.125 28.4375C19.125 27.7817 18.5933 27.25 17.9375 27.25C17.2817 27.25 16.75 27.7817 16.75 28.4375C16.75 29.0933 17.2817 29.625 17.9375 29.625Z" fill="white"/>
<path d="M25.854 29.625C26.5098 29.625 27.0415 29.0933 27.0415 28.4375C27.0415 27.7817 26.5098 27.25 25.854 27.25C25.1982 27.25 24.6665 27.7817 24.6665 28.4375C24.6665 29.0933 25.1982 29.625 25.854 29.625Z" fill="white"/>
</svg>
