<svg width="232" height="13" viewBox="0 0 232 13" fill="none" xmlns="http://www.w3.org/2000/svg">
<path d="M6 4L1 3.5V12.5H231.5V6.5H227L219.5 5.5L217 6.5L215.5 5.5H212.5V4.5L209.5 3.5H203.5L203 3L197.5 2H194L193 3H190V4.5H186.5V5.5H184.5L183.5 6.5H173L172.5 5.5H169V4.5H164V5.5H159.5L157.5 4L155 5.5H152.5H137.5V6.5H135V7.5H132.5L129.5 8.5L124.5 6.5H118L116 5.5H109.5L107.5 4.5H105L102.5 5.5H90L88 6.5L86 4.5H84L81.5 6.5H80L79 5.5H68L67 6.5H59L55.5 4.5H45V5.5H39L33 2.5H21.5L17.5 1L13 2.5L6 4Z" fill="white" stroke="white"/>
</svg>
