<svg width="231" height="49" viewBox="0 0 231 49" fill="none" xmlns="http://www.w3.org/2000/svg">
<path d="M5.51193 28.8842H0V39.2V49H231V2.06316H224.486L219.475 0L214.965 3.09474L210.957 3.61053L201.937 11.8632H195.924L189.911 8.25263H183.397L180.892 5.67368L166.36 16.5053H155.837L144.813 26.3053L136.295 24.7579L133.79 21.6632L131.284 22.6947L130.282 20.1158L127.275 21.1474L114.748 17.5368L111.241 22.6947H107.733H104.226H100.718H94.705L92.1996 24.7579H87.6898L83.18 30.9474H77.6681V35.5895H74.1605L67.1453 39.7158H60.6312L59.128 41.7789H50.6095L48.1041 44.8737L43.0933 41.7789L39.5857 44.8737L33.5727 41.7789L29.564 43.3263L25.0542 39.7158L20.0434 35.5895L17.538 30.9474H11.5249L5.51193 28.8842Z" fill="white"/>
</svg>
